<?xml version="1.0" encoding="utf-8"?>
<!-- Generator: Adobe Illustrator 17.0.0, SVG Export Plug-In . SVG Version: 6.00 Build 0)  -->
<!DOCTYPE svg PUBLIC "-//W3C//DTD SVG 1.1//EN" "http://www.w3.org/Graphics/SVG/1.1/DTD/svg11.dtd">
<svg version="1.1" id="Layer_1" xmlns="http://www.w3.org/2000/svg" xmlns:xlink="http://www.w3.org/1999/xlink" x="0px" y="0px"
	 width="360px" height="63.51px" viewBox="0 0 360 63.51" enable-background="new 0 0 360 63.51" xml:space="preserve">
<g>
	<path fill="#FFFFFF" d="M18.415,13.067h21.106v6.242H25.495v8.756h13.133v5.891H25.495v10.567h14.026v6.242H18.415V13.067z"/>
	<path fill="#FFFFFF" d="M44.547,13.067h6.836v37.697h-6.836V13.067z"/>
	<path fill="#FFFFFF" d="M76.515,48.414c-3.044,1.963-5.963,2.945-8.756,2.945c-3.712,0-6.625-1.292-8.742-3.878
		s-3.175-5.76-3.175-9.526c0-3.801,1.067-7.008,3.201-9.62c2.135-2.612,4.932-3.918,8.391-3.918c3.098,0,5.553,1.107,7.364,3.323
		c1.81,2.216,2.716,5.188,2.716,8.918v2.108H62.599c0.108,2.071,0.703,3.644,1.784,4.716c1.081,1.072,2.404,1.608,3.972,1.608
		c2.594,0,5.314-1.405,8.161-4.216V48.414z M62.787,34.198h7.864c-0.108-1.621-0.454-2.832-1.037-3.634
		c-0.584-0.802-1.396-1.203-2.437-1.203c-1.024,0-1.939,0.437-2.748,1.311S63.075,32.721,62.787,34.198z"/>
	<path fill="#FFFFFF" d="M96.811,49.683c-2.032,1.117-3.939,1.675-5.72,1.675c-3.04,0-5.638-1.275-7.798-3.823
		c-2.158-2.549-3.237-5.779-3.237-9.688c0-3.874,1.101-7.08,3.304-9.62c2.203-2.54,4.933-3.81,8.189-3.81
		c1.816,0,3.571,0.495,5.261,1.486v6.405c-1.51-1.28-2.92-1.919-4.232-1.919c-1.599,0-2.941,0.708-4.028,2.122
		c-1.087,1.414-1.63,3.193-1.63,5.337c0,2.054,0.512,3.823,1.536,5.31c1.024,1.486,2.335,2.23,3.934,2.23
		c1.438,0,2.911-0.685,4.421-2.054V49.683z"/>
	<path fill="#FFFFFF" d="M116.402,49.683c-2.032,1.117-3.939,1.675-5.719,1.675c-3.04,0-5.64-1.275-7.798-3.823
		c-2.158-2.549-3.238-5.779-3.238-9.688c0-3.874,1.102-7.08,3.306-9.62c2.203-2.54,4.932-3.81,8.187-3.81
		c1.817,0,3.571,0.495,5.261,1.486v6.405c-1.508-1.28-2.92-1.919-4.231-1.919c-1.599,0-2.942,0.708-4.03,2.122
		c-1.086,1.414-1.63,3.193-1.63,5.337c0,2.054,0.512,3.823,1.536,5.31c1.024,1.486,2.335,2.23,3.935,2.23
		c1.438,0,2.911-0.685,4.419-2.054V49.683z"/>
	<path fill="#FFFFFF" d="M124.05,12.445c1.062,0,1.986,0.378,2.769,1.135c0.784,0.757,1.176,1.693,1.176,2.81
		c0,1.099-0.388,2.031-1.163,2.797c-0.774,0.767-1.702,1.149-2.783,1.149c-1.081,0-2.01-0.382-2.784-1.149
		c-0.774-0.765-1.161-1.698-1.161-2.797c0-1.081,0.387-2.009,1.161-2.783C122.04,12.832,122.969,12.445,124.05,12.445z
		 M120.618,25.01h6.838v25.754h-6.838V25.01z"/>
	<path fill="#FFFFFF" d="M143.371,24.417c3.279,0,5.999,1.17,8.161,3.512c2.162,2.343,3.243,5.64,3.243,9.892
		c0,3.944-1.031,7.187-3.093,9.728c-2.064,2.539-4.906,3.81-8.527,3.81c-3.405,0-6.13-1.198-8.174-3.593
		c-2.045-2.397-3.068-5.603-3.068-9.62c0-3.121,0.626-5.793,1.879-8.015c1.252-2.223,2.8-3.732,4.648-4.524
		C140.287,24.813,141.93,24.417,143.371,24.417z M143.533,30.605c-1.55,0-2.729,0.68-3.539,2.04
		c-0.811,1.361-1.217,3.166-1.217,5.419c0,2.036,0.401,3.757,1.203,5.162c0.802,1.405,1.887,2.107,3.257,2.107
		c1.351,0,2.45-0.689,3.297-2.066c0.846-1.379,1.269-3.293,1.269-5.743c0-2.125-0.415-3.81-1.243-5.054
		C145.732,31.227,144.722,30.605,143.533,30.605z M144.047,13.336h6.404l-5.917,7.918h-4.594L144.047,13.336z"/>
	<path fill="#FFFFFF" d="M165.801,27.632c0.848-1.081,1.787-1.887,2.817-2.418c1.028-0.532,2.148-0.797,3.357-0.797
		c2.113,0,3.813,0.769,5.104,2.31c1.291,1.54,1.937,3.536,1.937,5.985v18.052h-6.838v-16.16c0-1.243-0.207-2.171-0.621-2.784
		c-0.415-0.612-1.046-0.918-1.892-0.918c-1.117,0-2.04,0.504-2.77,1.513c-0.729,1.008-1.095,2.305-1.095,3.891v14.457h-6.756V25.01
		h6.161L165.801,27.632z"/>
</g>
<g>
	<path fill="#06F9BA" d="M185.407,32.707v-0.111c0-11.013,8.302-20.034,20.2-20.034c7.305,0,11.678,2.435,15.275,5.977l-5.424,6.254
		c-2.989-2.712-6.033-4.373-9.907-4.373c-6.53,0-11.234,5.424-11.234,12.065v0.111c0,6.641,4.594,12.176,11.234,12.176
		c4.428,0,7.139-1.771,10.183-4.539l5.424,5.479c-3.984,4.262-8.412,6.918-15.883,6.918C193.875,52.63,185.407,43.83,185.407,32.707
		z"/>
	<path fill="#06F9BA" d="M238.673,12.95h7.859l16.602,39.017h-8.91l-3.542-8.689h-16.381l-3.542,8.689h-8.689L238.673,12.95z
		 M247.639,35.751l-5.146-12.563l-5.147,12.563H247.639z"/>
	<path fill="#06F9BA" d="M266.539,13.226h7.858l18.152,23.853V13.226h8.412v38.74h-7.25l-18.761-24.628v24.628h-8.412V13.226z"/>
	<path fill="#06F9BA" d="M305.97,32.707v-0.111c0-11.013,8.577-20.034,20.31-20.034c6.973,0,11.179,1.882,15.22,5.313l-5.368,6.474
		c-2.989-2.49-5.645-3.929-10.128-3.929c-6.199,0-11.124,5.479-11.124,12.065v0.111c0,7.084,4.869,12.286,11.732,12.286
		c3.1,0,5.867-0.774,8.025-2.324v-5.534h-8.578v-7.362h16.824v16.825c-3.984,3.376-9.463,6.142-16.547,6.142
		C314.271,52.63,305.97,44.164,305.97,32.707z"/>
</g>
</svg>
